PathFileType	4	(X/Y/Z)	/Users/visionmauri/2_5_3_f_1_Sports2D/2_5_3_f_1_Sports2D_px_person00.trc
DataRate	CameraRate	NumFrames	NumMarkers	Units	OrigDataRate	OrigDataStartFrame	OrigNumFrames
30.0	30.0	5	22	m	30.0	213	341
Frame#	Time	Hip			RHip			RKnee			RAnkle			RBigToe			RSmallToe			RHeel			LHip			LKnee			LAnkle			LBigToe			LSmallToe			LHeel			Neck			Head			Nose			RShoulder			RElbow			RWrist			LShoulder			LElbow			LWrist			
		X1	Y1	Z1	X2	Y2	Z2	X3	Y3	Z3	X4	Y4	Z4	X5	Y5	Z5	X6	Y6	Z6	X7	Y7	Z7	X8	Y8	Z8	X9	Y9	Z9	X10	Y10	Z10	X11	Y11	Z11	X12	Y12	Z12	X13	Y13	Z13	X14	Y14	Z14	X15	Y15	Z15	X16	Y16	Z16	X17	Y17	Z17	X18	Y18	Z18	X19	Y19	Z19	X20	Y20	Z20	X21	Y21	Z21	X22	Y22	Z22
213	7.120882352941177	494.2187112362774	842.8452859820524	0.0	453.59418888307243	848.7119621969941	0.0	454.191074510388	1023.4552299355896	0.0	482.63946230654176	1193.4002385903088	0.0	468.272257195484	1250.034573260681	0.0	449.67681932447124	1243.5730549902848	0.0	495.43116680229474	1220.0989194843307	0.0	539.1944250552101	843.2271312049161	0.0	549.2186525264594	1005.7582799346093	0.0	563.9818432220577	1144.11289842903	0.0	559.9858936923758	1223.216469979399	0.0	584.5802110184712	1211.4508955413983	0.0	560.6962984355939	1161.657958612166	0.0	471.34099191288954	591.5424166176543	0.0	452.47855637629215	478.5409938375326	0.0	449.91163357907516	560.597074295086	0.0	396.0746844687972	616.0575410570833	0.0	391.33851619558203	724.2925882673234	0.0	394.8906160755808	807.4660350554922	0.0	554.1129233337851	609.683469937557	0.0	619.933225135198	715.308201797384	0.0	664.5535344974254	801.5795922866879	0.0
214	7.154313725490196	491.9306952950386	842.8941320225756	0.0	450.7994885863271	848.8743115461872	0.0	452.147370046081	1023.8494092897186	0.0	482.4325262694226	1194.0954059298658	0.0	469.40853434643367	1250.8534666035948	0.0	449.493132863797	1243.7196739831797	0.0	494.51871715622866	1219.6724353238826	0.0	536.7579402453288	844.3091006991673	0.0	548.3010002178856	1004.6017158174212	0.0	561.42111593287	1146.2297876343935	0.0	558.3583289973765	1225.5595470554722	0.0	582.4170541019946	1215.2721702922868	0.0	558.0628295699953	1164.021505966193	0.0	468.90868748302137	591.755598417696	0.0	447.6580891820724	478.4110714495016	0.0	445.7806648470402	560.3815120345984	0.0	393.6975567402685	615.9744616197374	0.0	389.5303685934196	723.5850267816154	0.0	393.40799103473637	806.116936533829	0.0	551.2180950692427	608.7594575508505	0.0	618.3521575590437	714.4757632967403	0.0	663.4078499969442	801.6982600190233	0.0
215	7.1877450980392155	491.02579365489066	842.913595514386	0.0	448.89336771497403	848.2767459360425	0.0	450.925984498175	1023.763173121764	0.0	482.6352134616355	1194.8175455787862	0.0	469.12594796946956	1251.553852263841	0.0	449.3938889334547	1244.1511944602667	0.0	494.64051491923084	1219.1801936033396	0.0	535.5547478983138	843.6608385911964	0.0	547.5156114586081	1005.1092273069432	0.0	560.2150440240399	1152.9216944204543	0.0	557.1764051527906	1231.5633280526324	0.0	580.7042454699114	1222.5817221916132	0.0	556.1563644031065	1171.492330683393	0.0	467.08960716858013	592.263796612668	0.0	443.0831250463136	476.95336137428893	0.0	442.0966022720109	560.3350656293283	0.0	391.56522745885815	615.8792985052792	0.0	388.5801490843198	721.8929379240631	0.0	392.2481918441061	803.4640805254725	0.0	548.7856419715587	607.7294068960373	0.0	616.6587003913647	713.5105219033037	0.0	662.7329746150566	801.2207631408512	0.0
216	7.221176470588236	490.55694784606385	843.0038322203342	0.0	448.121646139966	847.7117571140778	0.0	450.2481316853374	1023.1558359287309	0.0	482.95747990482494	1194.6802352336174	0.0	468.3382206733464	1252.3545691150182	0.0	449.4721238819215	1244.9467187820342	0.0	495.14051759518594	1218.654403408429	0.0	534.4512190032057	841.9369591170616	0.0	547.0060084898712	1007.4462734652432	0.0	559.3527473794977	1161.7829990002235	0.0	555.7941420686792	1239.920122076866	0.0	579.4548219617867	1231.2449593535532	0.0	554.5709178640296	1182.2415384904943	0.0	464.95428851057324	592.2245167115011	0.0	439.29547826247307	474.7752603042906	0.0	439.67315678318147	560.1151583335067	0.0	389.5329917228478	615.6273870851263	0.0	388.0486885253209	720.4662371920463	0.0	391.02134966132263	801.4398615630392	0.0	546.3958300005601	606.7174982237219	0.0	614.0166200390624	712.3692450330086	0.0	661.5716456202599	800.0450238659536	0.0
217	7.254607843137255	489.3090832713557	842.8954942547076	0.0	447.7760467332065	847.8451881488413	0.0	450.0214903672622	1022.9276900271028	0.0	483.0544411959027	1193.5278204060075	0.0	468.4060622317907	1253.0176680475051	0.0	449.4551166354376	1245.7929194206322	0.0	495.14277438679017	1218.430268727587	0.0	532.4945592047471	840.9279746915472	0.0	546.8446744945123	1009.1041287232937	0.0	557.7490645971143	1169.6652900449221	0.0	553.8350557256487	1248.027995975319	0.0	578.312420885017	1238.9122935164078	0.0	552.733903693156	1192.7166377027638	0.0	462.60784714521253	591.107949219197	0.0	436.90986333970636	473.64194742165296	0.0	438.22532611967006	559.470728138648	0.0	387.62940034038576	614.8549758176338	0.0	387.0401573563204	720.1125925133729	0.0	388.96424791744914	801.9642316510734	0.0	543.8393342044562	605.7418398460459	0.0	610.9984049655035	711.6636791158079	0.0	659.5932380826852	798.924743122463	0.0
